<?xml version="1.0" encoding="UTF-8" standalone="no"?>
<svg
   xmlns:dc="http://purl.org/dc/elements/1.1/"
   xmlns:cc="http://creativecommons.org/ns#"
   xmlns:rdf="http://www.w3.org/1999/02/22-rdf-syntax-ns#"
   xmlns:svg="http://www.w3.org/2000/svg"
   xmlns="http://www.w3.org/2000/svg"
   viewBox="0 0 86.89827 87.029671"
   height="87.029671"
   width="86.89827"
   version="1.1"
   id="svg3352">
  <metadata
     id="metadata3358">
    <rdf:RDF>
      <cc:Work
         rdf:about="">
        <dc:format>image/svg+xml</dc:format>
        <dc:type
           rdf:resource="http://purl.org/dc/dcmitype/StillImage" />
        <dc:title></dc:title>
      </cc:Work>
    </rdf:RDF>
  </metadata>
  <defs
     id="defs3356" />
  <path
     style="fill:#636363"
     d="M 38.191565,83.779667 C 37.08958,81.992167 35.894399,79.353145 35.535608,77.915173 35.06511,76.029504 33.839843,74.95632 31.14024,74.065371 27.82473,72.971154 26.949755,73.069892 23.479448,74.929865 18.433984,77.634072 15.898727,77.5811 13.206369,74.715216 10.528127,71.864357 10.448934,68.596309 12.939706,63.710804 c 1.779024,-3.489453 1.80251,-4.009409 0.34831,-7.711441 -0.857638,-2.183333 -2.184008,-3.969696 -2.947489,-3.969696 -0.763482,0 -3.1630216,-0.905473 -5.3323109,-2.012161 -7.4118972,-3.781268 -6.4485718,-10.672301 1.9067707,-13.639856 4.1199452,-1.463274 5.2248862,-2.394792 6.4053782,-5.400032 1.285355,-3.272194 1.24685,-3.969109 -0.388949,-7.039835 -2.360894,-4.431875 -2.390526,-9.153643 -0.07062,-11.253128 2.433167,-2.201987 7.994153,-2.088226 11.518899,0.235641 2.688496,1.772526 3.065345,1.786129 6.743115,0.243411 2.815306,-1.18094 4.190458,-2.5179 4.959291,-4.8215565 2.765153,-8.28524224 8.782844,-10.8829759 12.947065,-5.5890261 1.17825,1.4979013 2.401415,4.0191737 2.718146,5.6028271 0.434921,2.1746075 1.55921,3.2969945 4.593376,4.5856075 3.81494,1.620209 4.19641,1.615024 7.565876,-0.102828 4.955879,-2.526651 9.626376,-2.359738 11.568787,0.413442 2.074153,2.961269 1.962679,5.245545 -0.496256,10.169087 -1.899708,3.803795 -1.941531,4.377344 -0.560261,7.683189 1.162643,2.782595 2.354485,3.830731 5.390158,4.740241 5.246538,1.571901 7.442775,4.172886 7.043398,8.341437 -0.281016,2.933141 -0.991589,3.683477 -5.789074,6.113024 -7.366889,3.730749 -9.129125,7.658201 -6.100204,13.595377 2.715408,5.322639 2.609876,7.685115 -0.48138,10.776371 -2.759246,2.759246 -4.78775,2.699707 -11.191677,-0.328491 -2.870404,-1.357316 -3.663721,-1.364826 -6.921325,-0.06552 -2.995281,1.194678 -3.908472,2.243584 -4.911856,5.641836 -1.71569,5.810681 -3.080821,7.110943 -7.465704,7.110943 -3.204999,0 -4.107937,-0.505991 -5.799605,-3.25 z M 56.624972,64.477925 C 69.082492,56.776032 71.892841,39.236674 62.439088,28.19209 52.807395,16.939623 36.820781,16.188309 26.505739,26.503351 16.323792,36.685299 16.962849,52.98178 27.904295,62.16768 c 5.386843,4.522528 9.519788,5.855453 17.247112,5.562404 5.340886,-0.202546 7.556899,-0.83067 11.473565,-3.252159 z M 36.306504,57.993465 C 26.908359,53.214691 24.644772,41.397107 31.554632,33.185206 38.814967,24.556787 52.970537,26.108271 58.063141,36.090601 65.330916,50.336617 50.537375,65.229585 36.306504,57.993465 Z M 49.108978,49.10659 c 3.450474,-3.450474 3.722545,-6.790847 0.850497,-10.442064 -2.644275,-3.361651 -8.86929,-3.692989 -11.92742,-0.634859 -3.05813,3.05813 -2.726792,9.283145 0.634859,11.92742 3.651217,2.872048 6.99159,2.599977 10.442064,-0.850497 z"
     id="path3364" />
</svg>
