<?xml version="1.0" encoding="UTF-8" standalone="no"?>
<!-- Creator: CorelDRAW -->

<svg
   xmlns:dc="http://purl.org/dc/elements/1.1/"
   xmlns:cc="http://creativecommons.org/ns#"
   xmlns:rdf="http://www.w3.org/1999/02/22-rdf-syntax-ns#"
   xmlns:svg="http://www.w3.org/2000/svg"
   xmlns="http://www.w3.org/2000/svg"
   xmlns:sodipodi="http://sodipodi.sourceforge.net/DTD/sodipodi-0.dtd"
   xmlns:inkscape="http://www.inkscape.org/namespaces/inkscape"
   xml:space="preserve"
   width="96.848396mm"
   height="18.653099mm"
   style="clip-rule:evenodd;fill-rule:evenodd;image-rendering:optimizeQuality;shape-rendering:geometricPrecision;text-rendering:geometricPrecision"
   viewBox="0 0 96.848396 18.653099"
   id="svg2"
   version="1.1"
   inkscape:version="0.91 r13725"
   sodipodi:docname="logo.svg"><metadata
     id="metadata48"><rdf:RDF><cc:Work
         rdf:about=""><dc:format>image/svg+xml</dc:format><dc:type
           rdf:resource="http://purl.org/dc/dcmitype/StillImage" /><dc:title></dc:title></cc:Work></rdf:RDF></metadata><sodipodi:namedview
     pagecolor="#ffffff"
     bordercolor="#666666"
     borderopacity="1"
     objecttolerance="10"
     gridtolerance="10"
     guidetolerance="10"
     inkscape:pageopacity="0"
     inkscape:pageshadow="2"
     inkscape:window-width="1920"
     inkscape:window-height="1017"
     id="namedview46"
     showgrid="false"
     fit-margin-top="0"
     fit-margin-left="0"
     fit-margin-right="0"
     fit-margin-bottom="0"
     inkscape:zoom="1.2685914"
     inkscape:cx="158.50369"
     inkscape:cy="91.58314"
     inkscape:window-x="-4"
     inkscape:window-y="-4"
     inkscape:window-maximized="1"
     inkscape:current-layer="svg2" /><defs
     id="defs4"><style
       type="text/css"
       id="style6"><![CDATA[
    .fil0 {fill:#DA251D}
    .fil2 {fill:white}
    .fil3 {fill:#3F444A}
    .fil1 {fill:#EC4848}
   ]]></style></defs><g
     id="Слой_x0020_1"
     transform="translate(-52.8171,-77.8927)"
     inkscape:export-xdpi="70.811623"
     inkscape:export-ydpi="70.811623"><metadata
       id="CorelCorpID_0Corel-Layer" /><path
       class="fil0"
       d="m 57.817,77.8927 16.4313,0 0,18.6531 -16.4313,0 c -2.75,0 -4.9999,-2.2499 -4.9999,-4.9999 l 0,-8.6534 c 0,-2.75 2.2499,-4.9998 4.9999,-4.9998 z"
       id="path10"
       inkscape:connector-curvature="0"
       style="fill:#da251d" /><path
       class="fil1"
       d="m 57.817,77.8927 16.4313,0 0,18.6531 -16.4313,0 c -2.75,0 -4.9999,-2.2499 -4.9999,-4.9999 l 0,-8.6534 c 0,-2.75 2.2499,-4.9998 4.9999,-4.9998 z"
       id="path12"
       inkscape:connector-curvature="0"
       style="fill:#ec4848" /><path
       class="fil2"
       d="m 58.9144,92.9274 3.9269,0 c 0.3932,0 0.691,0.0747 0.8964,0.2269 0.2055,0.1496 0.3082,0.3548 0.3082,0.6133 0,0.2293 -0.0821,0.4249 -0.2439,0.5867 -0.1644,0.1593 -0.411,0.2389 -0.7422,0.2389 l -5.54,0 c -0.3776,0 -0.6704,-0.0966 -0.881,-0.292 -0.2107,-0.1957 -0.3158,-0.425 -0.3158,-0.6907 0,-0.1689 0.0666,-0.3934 0.2028,-0.6736 0.1361,-0.28 0.2851,-0.4998 0.4444,-0.6614 0.6677,-0.6495 1.2686,-1.2072 1.8055,-1.6732 0.5368,-0.4636 0.9221,-0.7702 1.1507,-0.9152 0.4134,-0.2727 0.755,-0.548 1.0273,-0.8256 0.2748,-0.2753 0.4829,-0.5578 0.6266,-0.8476 0.1414,-0.2897 0.2133,-0.5745 0.2133,-0.8522 0,-0.3018 -0.0772,-0.5723 -0.2286,-0.8112 -0.1542,-0.239 -0.3623,-0.4225 -0.6241,-0.5554 -0.2646,-0.1327 -0.5522,-0.198 -0.8631,-0.198 -0.6576,0 -1.1738,0.2705 -1.5487,0.8137 -0.0513,0.07 -0.1361,0.2632 -0.2543,0.5795 -0.1181,0.3162 -0.249,0.56 -0.3981,0.7291 -0.1462,0.1691 -0.3646,0.2559 -0.6498,0.2559 -0.2516,0 -0.4597,-0.0796 -0.6241,-0.2341 -0.1669,-0.1545 -0.2491,-0.367 -0.2491,-0.6375 0,-0.3236 0.0771,-0.6639 0.2337,-1.0164 0.1542,-0.3549 0.3879,-0.676 0.696,-0.9633 0.3083,-0.2875 0.6987,-0.5191 1.1737,-0.6955 0.4727,-0.1761 1.0301,-0.2655 1.6669,-0.2655 0.7655,0 1.4205,0.1135 1.9623,0.338 0.3518,0.1521 0.6627,0.3598 0.9272,0.623 0.267,0.2654 0.4751,0.5698 0.6216,0.9174 0.1488,0.3453 0.2235,0.705 0.2235,1.0769 0,0.5866 -0.1542,1.1177 -0.4623,1.5959 -0.3083,0.4779 -0.6241,0.8547 -0.9452,1.125 -0.3211,0.2704 -0.858,0.6979 -1.613,1.2772 -0.755,0.5796 -1.2739,1.0311 -1.5539,1.3498 -0.1207,0.128 -0.2439,0.2825 -0.3698,0.4612 z"
       id="path14"
       inkscape:connector-curvature="0"
       style="fill:#ffffff" /><path
       class="fil2"
       d="m 67.4259,88.9846 c 0.339,-0.3839 0.7114,-0.6664 1.1121,-0.85 0.4007,-0.1859 0.8501,-0.2775 1.3458,-0.2775 0.4752,0 0.9169,0.0844 1.3202,0.2511 0.4033,0.1665 0.7576,0.4055 1.0606,0.7146 0.3032,0.3091 0.5369,0.6737 0.7013,1.0914 0.1669,0.42 0.2492,0.8595 0.2492,1.3158 0,0.6664 -0.1618,1.27 -0.4855,1.8107 -0.3237,0.5434 -0.7731,0.9659 -1.3535,1.27 -0.578,0.3043 -1.2354,0.4564 -1.9675,0.4564 -0.8424,0 -1.5691,-0.1932 -2.1804,-0.5795 -0.6113,-0.3862 -1.0787,-0.9584 -1.4023,-1.7142 -0.3237,-0.7558 -0.4855,-1.6829 -0.4855,-2.7742 0,-0.8909 0.0976,-1.6877 0.2927,-2.3903 0.1953,-0.7025 0.4779,-1.2845 0.8426,-1.7456 0.3672,-0.4636 0.8116,-0.8112 1.3328,-1.0478 0.5216,-0.2343 1.1148,-0.3525 1.7826,-0.3525 0.6419,0 1.207,0.1182 1.6951,0.3525 0.4906,0.2366 0.8579,0.5287 1.107,0.8764 0.2465,0.3477 0.3724,0.6832 0.3724,1.002 0,0.1932 -0.0797,0.3693 -0.2339,0.5264 -0.1539,0.1568 -0.3518,0.2366 -0.5931,0.2366 -0.2107,0 -0.406,-0.0628 -0.5857,-0.1884 -0.1798,-0.1232 -0.3132,-0.297 -0.3981,-0.5191 -0.1156,-0.2825 -0.2979,-0.5094 -0.5496,-0.6809 -0.2491,-0.1714 -0.5418,-0.2582 -0.8732,-0.2582 -0.2646,0 -0.5292,0.0723 -0.7935,0.2148 -0.2621,0.1448 -0.4856,0.3405 -0.6653,0.5843 -0.3672,0.4998 -0.5832,1.3932 -0.6473,2.6752 z m 2.0317,4.3918 c 0.5059,0 0.927,-0.1955 1.2584,-0.5843 0.3313,-0.3887 0.4957,-0.8981 0.4957,-1.5307 0,-0.4274 -0.0771,-0.7968 -0.2337,-1.1059 -0.1541,-0.309 -0.3673,-0.5456 -0.6396,-0.7073 -0.2723,-0.1618 -0.5702,-0.244 -0.8964,-0.244 -0.3106,0 -0.6087,0.0773 -0.8912,0.2343 -0.2851,0.1545 -0.5111,0.3791 -0.6857,0.6736 -0.1721,0.2946 -0.2593,0.6398 -0.2593,1.0357 0,0.6375 0.1746,1.1686 0.5264,1.5911 0.3518,0.425 0.7936,0.6375 1.3254,0.6375 z"
       id="path16"
       inkscape:connector-curvature="0"
       style="fill:#ffffff" /><path
       class="fil3"
       d="m 78.1705,94.5015 0,-14.4792 c 0,-0.6679 0.147,-1.1731 0.4371,-1.5154 0.2901,-0.3424 0.6824,-0.5136 1.1767,-0.5136 0.4905,0 0.8908,0.1712 1.1931,0.5093 0.3024,0.3383 0.4535,0.8435 0.4535,1.5197 l 0,14.4792 c 0,0.6765 -0.1553,1.1817 -0.4616,1.5197 -0.3065,0.3383 -0.7028,0.5095 -1.185,0.5095 -0.478,0 -0.8662,-0.1753 -1.1644,-0.5262 -0.2982,-0.3507 -0.4494,-0.8516 -0.4494,-1.503 z"
       id="path18"
       inkscape:connector-curvature="0"
       style="fill:#3f444a" /><path
       class="fil3"
       d="m 88.0745,84.8488 0,9.6527 c 0,0.6681 -0.1552,1.1733 -0.4657,1.5157 -0.3104,0.3423 -0.7028,0.5135 -1.1808,0.5135 -0.4779,0 -0.8661,-0.1753 -1.1645,-0.5262 -0.2982,-0.3507 -0.4493,-0.8516 -0.4493,-1.503 l 0,-9.5525 c 0,-0.6638 0.1511,-1.1606 0.4493,-1.4948 0.2984,-0.3339 0.6866,-0.5009 1.1645,-0.5009 0.478,0 0.8704,0.167 1.1808,0.5009 0.3105,0.3342 0.4657,0.8018 0.4657,1.3946 z m -1.6137,-3.4486 c -0.4535,0 -0.8417,-0.1419 -1.1646,-0.4259 -0.3228,-0.2839 -0.482,-0.6889 -0.482,-1.2108 0,-0.4675 0.1634,-0.8559 0.4944,-1.1607 0.331,-0.3048 0.7149,-0.4593 1.1522,-0.4593 0.425,0 0.7967,0.1378 1.1235,0.4134 0.3268,0.2798 0.4902,0.6805 0.4902,1.2066 0,0.5136 -0.1591,0.9144 -0.4778,1.2025 -0.3187,0.288 -0.6947,0.4342 -1.1359,0.4342 z"
       id="path20"
       inkscape:connector-curvature="0"
       style="fill:#3f444a" /><path
       class="fil3"
       d="m 94.416,84.7986 0,0.405 c 0.5761,-0.7765 1.2054,-1.3444 1.8877,-1.7075 0.6823,-0.3632 1.4669,-0.5428 2.3534,-0.5428 0.8622,0 1.6305,0.1921 2.3128,0.5761 0.6781,0.38 1.1846,0.9228 1.5198,1.6242 0.2166,0.4092 0.3556,0.8475 0.4208,1.3235 0.0614,0.4718 0.0942,1.0729 0.0942,1.8078 l 0,6.2166 c 0,0.6681 -0.1513,1.1733 -0.4494,1.5157 -0.2985,0.3423 -0.6907,0.5135 -1.1688,0.5135 -0.4861,0 -0.8823,-0.1753 -1.1892,-0.5262 -0.3023,-0.3507 -0.4533,-0.8516 -0.4533,-1.503 l 0,-5.5695 c 0,-1.098 -0.1513,-1.9415 -0.4494,-2.5259 -0.2981,-0.5803 -0.8947,-0.8726 -1.7897,-0.8726 -0.5803,0 -1.1112,0.1753 -1.5935,0.5303 -0.478,0.3548 -0.8293,0.8432 -1.0502,1.4654 -0.1591,0.4969 -0.2409,1.4236 -0.2409,2.789 l 0,4.1833 c 0,0.6765 -0.1553,1.1817 -0.4618,1.5197 -0.3062,0.3383 -0.7028,0.5095 -1.185,0.5095 -0.4695,0 -0.858,-0.1753 -1.1603,-0.5262 -0.3023,-0.3507 -0.4537,-0.8516 -0.4537,-1.503 l 0,-9.6527 c 0,-0.6346 0.1352,-1.1106 0.4047,-1.4237 0.2737,-0.3131 0.6417,-0.4718 1.1112,-0.4718 0.2861,0 0.5479,0.071 0.7765,0.2088 0.2328,0.1378 0.417,0.3465 0.556,0.622 0.1386,0.2797 0.2081,0.6179 0.2081,1.0145 z"
       id="path22"
       inkscape:connector-curvature="0"
       style="fill:#3f444a" /><path
       class="fil3"
       d="m 114.404,95.0026 -2.8847,-4.8347 -1.7734,1.7075 0,2.6513 c 0,0.6429 -0.1676,1.1398 -0.4985,1.4863 -0.3309,0.3465 -0.7112,0.5177 -1.144,0.5177 -0.5027,0 -0.8989,-0.1712 -1.185,-0.5135 -0.29,-0.3424 -0.4332,-0.8476 -0.4332,-1.5157 l 0,-14.2328 c 0,-0.7431 0.139,-1.3068 0.4209,-1.6951 0.2779,-0.3882 0.6783,-0.5803 1.1973,-0.5803 0.5027,0 0.9031,0.1754 1.1973,0.526 0.2981,0.3507 0.4452,0.8684 0.4452,1.5532 l 0,8.0913 3.6735,-3.9372 c 0.4575,-0.4925 0.8047,-0.8266 1.0417,-1.0061 0.241,-0.1796 0.531,-0.2672 0.8746,-0.2672 0.4085,0 0.7475,0.1335 1.017,0.3967 0.2738,0.2672 0.4089,0.597 0.4089,0.9977 0,0.4885 -0.4455,1.1398 -1.3282,1.9582 l -1.7364,1.624 3.3504,5.3818 c 0.2494,0.4008 0.4251,0.7056 0.5312,0.9144 0.1101,0.2087 0.1634,0.4048 0.1634,0.5928 0,0.5303 -0.1429,0.9478 -0.4248,1.2525 -0.2818,0.3048 -0.6579,0.4593 -1.1197,0.4593 -0.4004,0 -0.7069,-0.1085 -0.9193,-0.3298 -0.2166,-0.2213 -0.5066,-0.6179 -0.8742,-1.1983 z"
       id="path24"
       inkscape:connector-curvature="0"
       style="fill:#3f444a" /><path
       class="fil3"
       d="m 122.478,96.5307 c -0.4946,0 -0.9194,-0.1629 -1.2792,-0.4885 -0.3595,-0.3257 -0.539,-0.785 -0.539,-1.3694 0,-0.501 0.1714,-0.927 0.5147,-1.286 0.3432,-0.3591 0.7683,-0.5385 1.2707,-0.5385 0.5023,0 0.9316,0.1753 1.2869,0.5301 0.3556,0.355 0.5313,0.7849 0.5313,1.2944 0,0.5762 -0.1757,1.0312 -0.5313,1.3611 -0.3553,0.3298 -0.7719,0.4968 -1.2541,0.4968 z"
       id="path26"
       inkscape:connector-curvature="0"
       style="fill:#3f444a" /><path
       class="fil3"
       d="m 131.226,91.7127 0,2.7888 c 0,0.6765 -0.1552,1.1817 -0.466,1.5197 -0.3105,0.3383 -0.7024,0.5095 -1.1808,0.5095 -0.4695,0 -0.8579,-0.1712 -1.1603,-0.5135 -0.3023,-0.3424 -0.4536,-0.8476 -0.4536,-1.5157 l 0,-9.2979 c 0,-1.4988 0.5313,-2.2503 1.5896,-2.2503 0.5394,0 0.9317,0.1754 1.1684,0.5261 0.2413,0.3507 0.3718,0.8726 0.3965,1.5572 0.3881,-0.6846 0.7885,-1.2065 1.2012,-1.5572 0.4128,-0.3507 0.9603,-0.5261 1.6464,-0.5261 0.6865,0 1.3526,0.1754 1.9982,0.5261 0.6456,0.3507 0.9683,0.8183 0.9683,1.3986 0,0.4091 -0.1347,0.7432 -0.4127,1.0104 -0.2738,0.2672 -0.5719,0.3967 -0.8908,0.3967 -0.1185,0 -0.4085,-0.0752 -0.866,-0.2256 -0.4618,-0.1502 -0.8661,-0.2254 -1.2175,-0.2254 -0.4783,0 -0.8664,0.1295 -1.173,0.3842 -0.3023,0.2588 -0.539,0.6387 -0.7066,1.1439 -0.1675,0.5052 -0.2818,1.1064 -0.3475,1.8037 -0.061,0.6971 -0.0938,1.5446 -0.0938,2.5468 z"
       id="path28"
       inkscape:connector-curvature="0"
       style="fill:#3f444a" /><path
       class="fil3"
       d="m 146.597,94.6477 0,-0.4301 c -0.3923,0.5052 -0.8008,0.9312 -1.234,1.2735 -0.429,0.3424 -0.8989,0.597 -1.4097,0.7641 -0.5105,0.167 -1.0908,0.2504 -1.7445,0.2504 -0.7927,0 -1.4996,-0.1669 -2.1248,-0.5011 -0.6251,-0.334 -1.1112,-0.7932 -1.4545,-1.3818 -0.4046,-0.7099 -0.6088,-1.7285 -0.6088,-3.0604 l 0,-6.6133 c 0,-0.6723 0.1471,-1.169 0.4413,-1.4988 0.2942,-0.3299 0.6865,-0.4969 1.1726,-0.4969 0.4904,0 0.8908,0.167 1.1931,0.5009 0.3023,0.3342 0.4537,0.831 0.4537,1.4948 l 0,5.3441 c 0,0.7724 0.0652,1.4237 0.1919,1.9498 0.1266,0.526 0.3556,0.9394 0.6861,1.2357 0.3313,0.2966 0.7807,0.4469 1.3487,0.4469 0.5514,0 1.0707,-0.167 1.5568,-0.5012 0.4861,-0.3339 0.8417,-0.7722 1.0661,-1.3108 0.1842,-0.4718 0.2738,-1.5073 0.2738,-3.1064 l 0,-4.0581 c 0,-0.6638 0.1513,-1.1606 0.4536,-1.4948 0.3066,-0.3339 0.7028,-0.5009 1.1889,-0.5009 0.4865,0 0.8788,0.167 1.173,0.4969 0.2981,0.3298 0.4452,0.8265 0.4452,1.4988 l 0,9.6737 c 0,0.6345 -0.1429,1.1105 -0.4251,1.432 -0.2858,0.3174 -0.6495,0.476 -1.0989,0.476 -0.4452,0 -0.8174,-0.167 -1.1074,-0.4968 -0.29,-0.3299 -0.4371,-0.7933 -0.4371,-1.3862 z"
       id="path30"
       inkscape:connector-curvature="0"
       style="fill:#3f444a" /><path
       class="fil2"
       d="m 61.8792,82.0173 0,-2.1856 0.393,0 0,0.7865 c 0.1822,-0.1459 0.4122,-0.2187 0.6907,-0.2187 0.1703,0 0.3183,0.023 0.445,0.0693 0.1258,0.0463 0.2159,0.1098 0.2702,0.1913 0.0543,0.0814 0.081,0.1998 0.081,0.3546 l 0,1.0026 -0.393,0 0,-1.0017 c 0,-0.1338 -0.0424,-0.2315 -0.1264,-0.2925 -0.0849,-0.0611 -0.2039,-0.0915 -0.3588,-0.0915 -0.1152,0 -0.2239,0.0202 -0.3259,0.0614 -0.102,0.0412 -0.1742,0.0973 -0.2182,0.168 -0.0431,0.0701 -0.0646,0.1673 -0.0646,0.2915 l 0,0.8648 -0.393,0 z"
       id="path32"
       inkscape:connector-curvature="0"
       style="fill:#ffffff" /><path
       class="fil2"
       d="m 65.2157,81.7778 0.0535,0.237 c -0.1103,0.0158 -0.2091,0.024 -0.2955,0.024 -0.1421,0 -0.2523,-0.0153 -0.3311,-0.0463 -0.0783,-0.0311 -0.1333,-0.0714 -0.1654,-0.1217 -0.032,-0.0503 -0.0474,-0.1561 -0.0474,-0.3175 l 0,-0.9126 -0.2905,0 0,-0.2076 0.2905,0 0,-0.3917 0.3929,-0.1613 0,0.553 0.393,0 0,0.2076 -0.393,0 0,0.9279 c 0,0.0769 0.0068,0.1263 0.0208,0.148 0.0135,0.0219 0.0357,0.0393 0.067,0.0525 0.0312,0.0127 0.0759,0.0193 0.1339,0.0193 0.0433,0 0.1006,-0.0035 0.1713,-0.0106 z"
       id="path34"
       inkscape:connector-curvature="0"
       style="fill:#ffffff" /><path
       class="fil2"
       d="m 66.4564,81.7778 0.0534,0.237 c -0.1101,0.0158 -0.2089,0.024 -0.2954,0.024 -0.1421,0 -0.2522,-0.0153 -0.3312,-0.0463 -0.0781,-0.0311 -0.1331,-0.0714 -0.1652,-0.1217 -0.0321,-0.0503 -0.0476,-0.1561 -0.0476,-0.3175 l 0,-0.9126 -0.2903,0 0,-0.2076 0.2903,0 0,-0.3917 0.3929,-0.1613 0,0.553 0.3931,0 0,0.2076 -0.3931,0 0,0.9279 c 0,0.0769 0.0068,0.1263 0.0208,0.148 0.0136,0.0219 0.0357,0.0393 0.067,0.0525 0.0313,0.0127 0.076,0.0193 0.1341,0.0193 0.0431,0 0.1005,-0.0035 0.1712,-0.0106 z"
       id="path36"
       inkscape:connector-curvature="0"
       style="fill:#ffffff" /><path
       class="fil2"
       d="m 66.8441,82.6247 0,-2.1916 0.3572,0 0,0.2081 c 0.0842,-0.0805 0.1794,-0.1409 0.2857,-0.1811 0.1058,-0.0402 0.2345,-0.0606 0.3857,-0.0606 0.1979,0 0.3721,0.0347 0.5231,0.1043 0.1512,0.0693 0.265,0.1673 0.3423,0.2936 0.0766,0.1267 0.1155,0.2651 0.1155,0.4161 0,0.1613 -0.0425,0.3069 -0.1273,0.4366 -0.0848,0.1291 -0.2084,0.2283 -0.3707,0.2976 -0.1615,0.0686 -0.332,0.1033 -0.5106,0.1033 -0.1309,0 -0.2485,-0.0188 -0.3519,-0.0566 -0.1041,-0.0376 -0.1891,-0.085 -0.2561,-0.1423 l 0,0.7726 -0.3929,0 z m 0.3572,-1.3898 c 0,0.203 0.0604,0.353 0.1801,0.4503 0.1206,0.0972 0.2664,0.1459 0.4377,0.1459 0.1742,0 0.323,-0.0504 0.4466,-0.151 0.1242,-0.1007 0.186,-0.2565 0.186,-0.4676 0,-0.2014 -0.0603,-0.352 -0.1817,-0.4522 -0.1213,-0.1002 -0.2657,-0.1501 -0.4338,-0.1501 -0.1666,0 -0.3142,0.0534 -0.4421,0.1597 -0.1287,0.1068 -0.1928,0.2614 -0.1928,0.465 z"
       id="path38"
       inkscape:connector-curvature="0"
       style="fill:#ffffff" /><path
       class="fil2"
       d="m 69.4347,80.7384 0,-0.3053 0.4466,0 0,0.3053 -0.4466,0 z m 0,1.2789 0,-0.3051 0.4466,0 0,0.3051 -0.4466,0 z"
       id="path40"
       inkscape:connector-curvature="0"
       style="fill:#ffffff" /><polygon
       class="fil2"
       points="70.5899,82.054 70.2735,82.054 71.2023,79.7952 71.5187,79.7952 "
       id="polygon42"
       style="fill:#ffffff" /><polygon
       class="fil2"
       points="71.8306,82.054 71.5143,82.054 72.4431,79.7952 72.7594,79.7952 "
       id="polygon44"
       style="fill:#ffffff" /></g></svg>