<?xml version="1.0" encoding="UTF-8" standalone="no"?>
<!-- Creator: CorelDRAW -->

<svg
   xmlns:osb="http://www.openswatchbook.org/uri/2009/osb"
   xmlns:dc="http://purl.org/dc/elements/1.1/"
   xmlns:cc="http://creativecommons.org/ns#"
   xmlns:rdf="http://www.w3.org/1999/02/22-rdf-syntax-ns#"
   xmlns:svg="http://www.w3.org/2000/svg"
   xmlns="http://www.w3.org/2000/svg"
   xmlns:sodipodi="http://sodipodi.sourceforge.net/DTD/sodipodi-0.dtd"
   xmlns:inkscape="http://www.inkscape.org/namespaces/inkscape"
   xml:space="preserve"
   width="96.848396mm"
   height="18.653099mm"
   style="clip-rule:evenodd;fill-rule:evenodd;image-rendering:optimizeQuality;shape-rendering:geometricPrecision;text-rendering:geometricPrecision"
   viewBox="0 0 96.848396 18.653099"
   id="svg2"
   version="1.1"
   inkscape:version="0.91 r13725"
   sodipodi:docname="logo_footer.svg"><metadata
     id="metadata48"><rdf:RDF><cc:Work
         rdf:about=""><dc:format>image/svg+xml</dc:format><dc:type
           rdf:resource="http://purl.org/dc/dcmitype/StillImage" /><dc:title /></cc:Work></rdf:RDF></metadata><sodipodi:namedview
     pagecolor="#ffffff"
     bordercolor="#666666"
     borderopacity="1"
     objecttolerance="10"
     gridtolerance="10"
     guidetolerance="10"
     inkscape:pageopacity="0"
     inkscape:pageshadow="2"
     inkscape:window-width="1920"
     inkscape:window-height="1017"
     id="namedview46"
     showgrid="false"
     fit-margin-top="0"
     fit-margin-left="0"
     fit-margin-right="0"
     fit-margin-bottom="0"
     inkscape:zoom="10.148731"
     inkscape:cx="58.592441"
     inkscape:cy="35.651301"
     inkscape:window-x="-4"
     inkscape:window-y="-4"
     inkscape:window-maximized="1"
     inkscape:current-layer="svg2"
     showguides="false" /><defs
     id="defs4"><linearGradient
       id="linearGradient5587"
       osb:paint="solid"><stop
         style="stop-color:#809ab4;stop-opacity:1;"
         offset="0"
         id="stop5589" /></linearGradient><style
       type="text/css"
       id="style6"><![CDATA[
    .fil0 {fill:#DA251D}
    .fil2 {fill:white}
    .fil3 {fill:#3F444A}
    .fil1 {fill:#EC4848}
   ]]></style></defs><path
     style="fill:#809bb5;fill-opacity:0.96137339"
     d="M 17.716797 0 C 7.9727024 2.3684758e-015 0 7.9727024 0 17.716797 L 0 48.376953 C 2.3684758e-015 58.121048 7.9727024 66.09375 17.716797 66.09375 L 75.9375 66.09375 L 75.9375 0 L 17.716797 0 z M 65.144531 6.7402344 L 66.265625 6.7402344 L 62.974609 14.744141 L 61.853516 14.744141 L 65.144531 6.7402344 z M 69.541016 6.7402344 L 70.662109 6.7402344 L 67.371094 14.744141 L 66.25 14.744141 L 69.541016 6.7402344 z M 32.109375 6.8710938 L 33.501953 6.8710938 L 33.501953 9.6582031 C 34.147544 9.1412346 34.962408 8.8828125 35.949219 8.8828125 C 36.552644 8.8828125 37.078407 8.962898 37.527344 9.1269531 C 37.973092 9.2910082 38.291973 9.5178611 38.484375 9.8066406 C 38.676777 10.095066 38.771484 10.513996 38.771484 11.0625 L 38.771484 14.615234 L 37.378906 14.615234 L 37.378906 11.064453 C 37.378906 10.590359 37.227319 10.245439 36.929688 10.029297 C 36.628861 9.8128002 36.207061 9.7050781 35.658203 9.7050781 C 35.250014 9.7050781 34.865324 9.7758907 34.503906 9.921875 C 34.142489 10.067859 33.886374 10.267066 33.730469 10.517578 C 33.577752 10.765964 33.501953 11.110703 33.501953 11.550781 L 33.501953 14.615234 L 32.109375 14.615234 L 32.109375 6.8710938 z M 42.539062 7.0410156 L 42.539062 9.0019531 L 43.931641 9.0019531 L 43.931641 9.7363281 L 42.539062 9.7363281 L 42.539062 13.025391 C 42.539062 13.297871 42.563675 13.471938 42.613281 13.548828 C 42.661116 13.626427 42.740662 13.687603 42.851562 13.734375 C 42.962114 13.779375 43.118707 13.802734 43.324219 13.802734 C 43.477644 13.802734 43.681129 13.790782 43.931641 13.765625 L 44.121094 14.605469 C 43.730267 14.661453 43.38036 14.691406 43.074219 14.691406 C 42.570715 14.691406 42.181556 14.637186 41.902344 14.527344 C 41.624903 14.417147 41.428193 14.273931 41.314453 14.095703 C 41.201067 13.917475 41.146484 13.542593 41.146484 12.970703 L 41.146484 9.7363281 L 40.117188 9.7363281 L 40.117188 9.0019531 L 41.146484 9.0019531 L 41.146484 7.6132812 L 42.539062 7.0410156 z M 46.935547 7.0410156 L 46.935547 9.0019531 L 48.328125 9.0019531 L 48.328125 9.7363281 L 46.935547 9.7363281 L 46.935547 13.025391 C 46.935547 13.297871 46.960159 13.471938 47.009766 13.548828 C 47.057955 13.626427 47.135188 13.687603 47.246094 13.734375 C 47.356999 13.779375 47.514837 13.802734 47.720703 13.802734 C 47.87342 13.802734 48.077613 13.790782 48.328125 13.765625 L 48.517578 14.605469 C 48.12746 14.661453 47.777199 14.691406 47.470703 14.691406 C 46.967199 14.691406 46.576796 14.637186 46.296875 14.527344 C 46.020143 14.417147 45.824674 14.273931 45.710938 14.095703 C 45.597197 13.917475 45.542969 13.542593 45.542969 12.970703 L 45.542969 9.7363281 L 44.513672 9.7363281 L 44.513672 9.0019531 L 45.542969 9.0019531 L 45.542969 7.6132812 L 46.935547 7.0410156 z M 53.345703 8.8828125 C 54.046924 8.8828125 54.664179 9.005339 55.199219 9.2519531 C 55.734967 9.4975043 56.138212 9.8454485 56.412109 10.292969 C 56.683527 10.741906 56.822266 11.232539 56.822266 11.767578 C 56.822266 12.339114 56.671566 12.854886 56.371094 13.314453 C 56.070621 13.771894 55.633672 14.121636 55.058594 14.367188 C 54.48635 14.610255 53.880882 14.734375 53.248047 14.734375 C 52.784228 14.734375 52.368331 14.66714 52.001953 14.533203 C 51.633095 14.399975 51.331152 14.232328 51.09375 14.029297 L 51.09375 16.767578 L 49.701172 16.767578 L 49.701172 9.0019531 L 50.966797 9.0019531 L 50.966797 9.7382812 C 51.265143 9.4530453 51.603815 9.2400972 51.980469 9.0976562 C 52.355351 8.9552156 52.809955 8.8828125 53.345703 8.8828125 z M 58.880859 9.0019531 L 60.462891 9.0019531 L 60.462891 10.083984 L 58.880859 10.083984 L 58.880859 9.0019531 z M 53.216797 9.6289062 C 52.626482 9.6289062 52.10358 9.8186605 51.650391 10.195312 C 51.194367 10.573738 50.966797 11.12038 50.966797 11.841797 C 50.966797 12.561088 51.181335 13.092736 51.605469 13.4375 C 52.032792 13.781909 52.549281 13.955078 53.15625 13.955078 C 53.773494 13.955078 54.300328 13.776379 54.738281 13.419922 C 55.17836 13.063111 55.398436 12.511664 55.398438 11.763672 C 55.398438 11.05005 55.184064 10.515196 54.753906 10.160156 C 54.324103 9.8051178 53.812427 9.6289063 53.216797 9.6289062 z M 58.880859 13.533203 L 60.462891 13.533203 L 60.462891 14.615234 L 58.880859 14.615234 L 58.880859 13.533203 z M 25.890625 22.216797 C 28.603027 22.216797 30.923986 22.620543 32.84375 23.416016 C 34.090285 23.954953 35.191702 24.690448 36.128906 25.623047 C 37.074969 26.563441 37.812937 27.641393 38.332031 28.873047 C 38.859275 30.096551 39.123047 31.371697 39.123047 32.689453 C 39.123047 34.767957 38.578021 36.649341 37.486328 38.34375 C 36.393927 40.037096 35.274475 41.372322 34.136719 42.330078 C 32.998963 43.288188 31.095119 44.802831 28.419922 46.855469 C 25.744725 48.90917 23.906188 50.50942 22.914062 51.638672 C 22.486392 52.092215 22.051571 52.640249 21.605469 53.273438 L 35.519531 53.273438 C 36.91276 53.273438 37.967524 53.536881 38.695312 54.076172 C 39.423462 54.606251 39.787109 55.334055 39.787109 56.25 C 39.787109 57.06248 39.497135 57.754818 38.923828 58.328125 C 38.341308 58.892574 37.466512 59.175781 36.292969 59.175781 L 16.664062 59.175781 C 15.326117 59.175781 14.287236 58.832987 13.541016 58.140625 C 12.794441 57.4472 12.421875 56.634816 12.421875 55.693359 C 12.421875 55.094895 12.658027 54.299475 13.140625 53.306641 C 13.622869 52.314515 14.150395 51.535489 14.714844 50.962891 C 17.08071 48.661513 19.21088 46.684384 21.113281 45.033203 C 23.015328 43.390526 24.381406 42.304795 25.191406 41.791016 C 26.656209 40.824756 27.865236 39.848856 28.830078 38.865234 C 29.803779 37.889762 30.541608 36.890132 31.050781 35.863281 C 31.551805 34.836785 31.806641 33.827726 31.806641 32.84375 C 31.806641 31.77438 31.53255 30.815246 30.996094 29.96875 C 30.449716 29.1219 29.712794 28.470906 28.785156 28 C 27.847597 27.529803 26.828177 27.298828 25.726562 27.298828 C 23.396491 27.298828 21.56862 28.256916 20.240234 30.181641 C 20.058463 30.429672 19.75671 31.11558 19.337891 32.236328 C 18.919426 33.356722 18.456041 34.219186 17.927734 34.818359 C 17.409703 35.417533 16.635551 35.726562 15.625 35.726562 C 14.733504 35.726562 13.996582 35.443925 13.414062 34.896484 C 12.822692 34.349043 12.53125 33.595183 12.53125 32.636719 C 12.53125 31.490105 12.804493 30.284172 13.359375 29.035156 C 13.905753 27.777637 14.734479 26.641039 15.826172 25.623047 C 16.918573 24.604346 18.301304 23.783242 19.984375 23.158203 C 21.659296 22.534227 23.634247 22.216797 25.890625 22.216797 z M 59.435547 22.216797 C 61.709996 22.216797 63.711918 22.6366 65.441406 23.466797 C 67.179753 24.305143 68.480643 25.340258 69.363281 26.572266 C 70.236706 27.804273 70.683594 28.993441 70.683594 30.123047 C 70.683594 30.807614 70.401847 31.431628 69.855469 31.988281 C 69.310154 32.543872 68.608906 32.826172 67.753906 32.826172 C 67.007331 32.826172 66.314467 32.603242 65.677734 32.158203 C 65.040648 31.721668 64.568405 31.105328 64.267578 30.318359 C 63.857972 29.317375 63.212163 28.513927 62.320312 27.90625 C 61.437683 27.298927 60.400814 26.992188 59.226562 26.992188 C 58.289011 26.992188 57.350559 27.247032 56.414062 27.751953 C 55.48537 28.265024 54.693373 28.958407 54.056641 29.822266 C 52.755538 31.59321 51.990798 34.760215 51.763672 39.302734 C 52.964853 37.942459 54.283322 36.941567 55.703125 36.291016 C 57.122928 35.632315 58.716239 35.306641 60.472656 35.306641 C 62.156436 35.306641 63.721375 35.606596 65.150391 36.197266 C 66.579406 36.787226 67.834581 37.633279 68.908203 38.728516 C 69.982534 39.823752 70.810058 41.115664 71.392578 42.595703 C 71.983956 44.083892 72.277344 45.641009 72.277344 47.257812 C 72.277344 49.619072 71.703609 51.757962 70.556641 53.673828 C 69.409672 55.599261 67.816301 57.096308 65.759766 58.173828 C 63.711734 59.252056 61.383118 59.791016 58.789062 59.791016 C 55.804189 59.791016 53.228524 59.107061 51.0625 57.738281 C 48.896476 56.369856 47.240364 54.342094 46.09375 51.664062 C 44.946782 48.986039 44.373047 45.700795 44.373047 41.833984 C 44.373047 38.677252 44.718857 35.854762 45.410156 33.365234 C 46.102164 30.876061 47.10424 28.813498 48.396484 27.179688 C 49.697587 25.53701 51.272369 24.305143 53.119141 23.466797 C 54.96733 22.6366 57.069326 22.216797 59.435547 22.216797 z M 58.90625 40.080078 C 57.805699 40.080078 56.750984 40.353857 55.75 40.910156 C 54.739803 41.457597 53.938974 42.253371 53.320312 43.296875 C 52.710517 44.340733 52.400391 45.564002 52.400391 46.966797 C 52.400391 49.225655 53.01909 51.108422 54.265625 52.605469 C 55.51216 54.111374 57.07856 54.863281 58.962891 54.863281 C 60.75545 54.863281 62.247623 54.170607 63.421875 52.792969 C 64.595773 51.415685 65.177734 49.610637 65.177734 47.369141 C 65.177734 45.854731 64.904491 44.546408 64.349609 43.451172 C 63.803586 42.35629 63.048827 41.518265 62.083984 40.945312 C 61.119142 40.372013 60.062077 40.080078 58.90625 40.080078 z "
     transform="scale(0.28222222,0.28222222)"
     id="path10" /><path
     style="fill:#809bb5;fill-opacity:0;opacity:0.43"
     inkscape:connector-curvature="0"
     id="path12"
     d="m 4.9999,0 16.4313,0 0,18.6531 -16.4313,0 C 2.2499,18.6531 0,16.4032 0,13.6532 L 0,4.9998 C 0,2.2498 2.2499,0 4.9999,0 Z"
     class="fil1" /><path
     style="fill:#809ab4;stroke:none;stroke-opacity:0.96470588;fill-opacity:0.96470588"
     inkscape:connector-curvature="0"
     id="path18"
     d="m 25.3534,16.6088 0,-14.4792 c 0,-0.6679 0.147,-1.1731 0.4371,-1.5154 0.2901,-0.3424 0.6824,-0.5136 1.1767,-0.5136 0.4905,0 0.8908,0.1712 1.1931,0.5093 0.3024,0.3383 0.4535,0.8435 0.4535,1.5197 l 0,14.4792 c 0,0.6765 -0.1553,1.1817 -0.4616,1.5197 -0.3065,0.3383 -0.7028,0.5095 -1.185,0.5095 -0.478,0 -0.8662,-0.1753 -1.1644,-0.5262 -0.2982,-0.3507 -0.4494,-0.8516 -0.4494,-1.503 z"
     class="fil3" /><path
     style="fill:#809ab4;fill-opacity:0.96470588"
     inkscape:connector-curvature="0"
     id="path20"
     d="m 35.2574,6.9561 0,9.6527 c 0,0.6681 -0.1552,1.1733 -0.4657,1.5157 -0.3104,0.3423 -0.7028,0.5135 -1.1808,0.5135 -0.4779,0 -0.8661,-0.1753 -1.1645,-0.5262 -0.2982,-0.3507 -0.4493,-0.8516 -0.4493,-1.503 l 0,-9.5525 c 0,-0.6638 0.1511,-1.1606 0.4493,-1.4948 0.2984,-0.3339 0.6866,-0.5009 1.1645,-0.5009 0.478,0 0.8704,0.167 1.1808,0.5009 0.3105,0.3342 0.4657,0.8018 0.4657,1.3946 z M 33.6437,3.5075 c -0.4535,0 -0.8417,-0.1419 -1.1646,-0.4259 -0.3228,-0.2839 -0.482,-0.6889 -0.482,-1.2108 0,-0.4675 0.1634,-0.8559 0.4944,-1.1607 0.331,-0.3048 0.7149,-0.4593 1.1522,-0.4593 0.425,0 0.7967,0.1378 1.1235,0.4134 0.3268,0.2798 0.4902,0.6805 0.4902,1.2066 0,0.5136 -0.1591,0.9144 -0.4778,1.2025 -0.3187,0.288 -0.6947,0.4342 -1.1359,0.4342 z"
     class="fil3" /><path
     style="fill:#809ab4;fill-opacity:0.96470588"
     inkscape:connector-curvature="0"
     id="path22"
     d="m 41.5989,6.9059 0,0.405 C 42.175,6.5344 42.8043,5.9665 43.4866,5.6034 44.1689,5.2402 44.9535,5.0606 45.84,5.0606 c 0.8622,0 1.6305,0.1921 2.3128,0.5761 0.6781,0.38 1.1846,0.9228 1.5198,1.6242 0.2166,0.4092 0.3556,0.8475 0.4208,1.3235 0.0614,0.4718 0.0942,1.0729 0.0942,1.8078 l 0,6.2166 c 0,0.6681 -0.1513,1.1733 -0.4494,1.5157 -0.2985,0.3423 -0.6907,0.5135 -1.1688,0.5135 -0.4861,0 -0.8823,-0.1753 -1.1892,-0.5262 -0.3023,-0.3507 -0.4533,-0.8516 -0.4533,-1.503 l 0,-5.5695 c 0,-1.098 -0.1513,-1.9415 -0.4494,-2.5259 -0.2981,-0.5803 -0.8947,-0.8726 -1.7897,-0.8726 -0.5803,0 -1.1112,0.1753 -1.5935,0.5303 -0.478,0.3548 -0.8293,0.8432 -1.0502,1.4654 -0.1591,0.4969 -0.2409,1.4236 -0.2409,2.789 l 0,4.1833 c 0,0.6765 -0.1553,1.1817 -0.4618,1.5197 -0.3062,0.3383 -0.7028,0.5095 -1.185,0.5095 -0.4695,0 -0.858,-0.1753 -1.1603,-0.5262 -0.3023,-0.3507 -0.4537,-0.8516 -0.4537,-1.503 l 0,-9.6527 c 0,-0.6346 0.1352,-1.1106 0.4047,-1.4237 0.2737,-0.3131 0.6417,-0.4718 1.1112,-0.4718 0.2861,0 0.5479,0.071 0.7765,0.2088 0.2328,0.1378 0.417,0.3465 0.556,0.622 0.1386,0.2797 0.2081,0.6179 0.2081,1.0145 z"
     class="fil3" /><path
     style="fill:#809ab4;fill-opacity:0.96470588"
     inkscape:connector-curvature="0"
     id="path24"
     d="m 61.5869,17.1099 -2.8847,-4.8347 -1.7734,1.7075 0,2.6513 c 0,0.6429 -0.1676,1.1398 -0.4985,1.4863 -0.3309,0.3465 -0.7112,0.5177 -1.144,0.5177 -0.5027,0 -0.8989,-0.1712 -1.185,-0.5135 -0.29,-0.3424 -0.4332,-0.8476 -0.4332,-1.5157 l 0,-14.2328 c 0,-0.7431 0.139,-1.3068 0.4209,-1.6951 0.2779,-0.3882 0.6783,-0.5803 1.1973,-0.5803 0.5027,0 0.9031,0.1754 1.1973,0.526 0.2981,0.3507 0.4452,0.8684 0.4452,1.5532 l 0,8.0913 3.6735,-3.9372 c 0.4575,-0.4925 0.8047,-0.8266 1.0417,-1.0061 0.241,-0.1796 0.531,-0.2672 0.8746,-0.2672 0.4085,0 0.7475,0.1335 1.017,0.3967 0.2738,0.2672 0.4089,0.597 0.4089,0.9977 0,0.4885 -0.4455,1.1398 -1.3282,1.9582 l -1.7364,1.624 3.3504,5.3818 c 0.2494,0.4008 0.4251,0.7056 0.5312,0.9144 0.1101,0.2087 0.1634,0.4048 0.1634,0.5928 0,0.5303 -0.1429,0.9478 -0.4248,1.2525 -0.2818,0.3048 -0.6579,0.4593 -1.1197,0.4593 -0.4004,0 -0.7069,-0.1085 -0.9193,-0.3298 -0.2166,-0.2213 -0.5066,-0.6179 -0.8742,-1.1983 z"
     class="fil3" /><path
     style="fill:#809ab4;fill-opacity:0.96470588"
     inkscape:connector-curvature="0"
     id="path26"
     d="m 69.6609,18.638 c -0.4946,0 -0.9194,-0.1629 -1.2792,-0.4885 -0.3595,-0.3257 -0.539,-0.785 -0.539,-1.3694 0,-0.501 0.1714,-0.927 0.5147,-1.286 0.3432,-0.3591 0.7683,-0.5385 1.2707,-0.5385 0.5023,0 0.9316,0.1753 1.2869,0.5301 0.3556,0.355 0.5313,0.7849 0.5313,1.2944 0,0.5762 -0.1757,1.0312 -0.5313,1.3611 -0.3553,0.3298 -0.7719,0.4968 -1.2541,0.4968 z"
     class="fil3" /><path
     style="fill:#809ab4;fill-opacity:0.96470588"
     inkscape:connector-curvature="0"
     id="path28"
     d="m 78.4089,13.82 0,2.7888 c 0,0.6765 -0.1552,1.1817 -0.466,1.5197 -0.3105,0.3383 -0.7024,0.5095 -1.1808,0.5095 -0.4695,0 -0.8579,-0.1712 -1.1603,-0.5135 -0.3023,-0.3424 -0.4536,-0.8476 -0.4536,-1.5157 l 0,-9.2979 c 0,-1.4988 0.5313,-2.2503 1.5896,-2.2503 0.5394,0 0.9317,0.1754 1.1684,0.5261 0.2413,0.3507 0.3718,0.8726 0.3965,1.5572 0.3881,-0.6846 0.7885,-1.2065 1.2012,-1.5572 0.4128,-0.3507 0.9603,-0.5261 1.6464,-0.5261 0.6865,0 1.3526,0.1754 1.9982,0.5261 0.6456,0.3507 0.9683,0.8183 0.9683,1.3986 0,0.4091 -0.1347,0.7432 -0.4127,1.0104 -0.2738,0.2672 -0.5719,0.3967 -0.8908,0.3967 -0.1185,0 -0.4085,-0.0752 -0.866,-0.2256 -0.4618,-0.1502 -0.8661,-0.2254 -1.2175,-0.2254 -0.4783,0 -0.8664,0.1295 -1.173,0.3842 -0.3023,0.2588 -0.539,0.6387 -0.7066,1.1439 -0.1675,0.5052 -0.2818,1.1064 -0.3475,1.8037 -0.061,0.6971 -0.0938,1.5446 -0.0938,2.5468 z"
     class="fil3" /><path
     style="fill:#809ab4;fill-opacity:0.96470588"
     inkscape:connector-curvature="0"
     id="path30"
     d="m 93.7799,16.755 0,-0.4301 c -0.3923,0.5052 -0.8008,0.9312 -1.234,1.2735 -0.429,0.3424 -0.8989,0.597 -1.4097,0.7641 -0.5105,0.167 -1.0908,0.2504 -1.7445,0.2504 -0.7927,0 -1.4996,-0.1669 -2.1248,-0.5011 -0.6251,-0.334 -1.1112,-0.7932 -1.4545,-1.3818 -0.4046,-0.7099 -0.6088,-1.7285 -0.6088,-3.0604 l 0,-6.6133 c 0,-0.6723 0.1471,-1.169 0.4413,-1.4988 0.2942,-0.3299 0.6865,-0.4969 1.1726,-0.4969 0.4904,0 0.8908,0.167 1.1931,0.5009 0.3023,0.3342 0.4537,0.831 0.4537,1.4948 l 0,5.3441 c 0,0.7724 0.0652,1.4237 0.1919,1.9498 0.1266,0.526 0.3556,0.9394 0.6861,1.2357 0.3313,0.2966 0.7807,0.4469 1.3487,0.4469 0.5514,0 1.0707,-0.167 1.5568,-0.5012 0.4861,-0.3339 0.8417,-0.7722 1.0661,-1.3108 0.1842,-0.4718 0.2738,-1.5073 0.2738,-3.1064 l 0,-4.0581 c 0,-0.6638 0.1513,-1.1606 0.4536,-1.4948 0.3066,-0.3339 0.7028,-0.5009 1.1889,-0.5009 0.4865,0 0.8788,0.167 1.173,0.4969 0.2981,0.3298 0.4452,0.8265 0.4452,1.4988 l 0,9.6737 c 0,0.6345 -0.1429,1.1105 -0.4251,1.432 -0.2858,0.3174 -0.6495,0.476 -1.0989,0.476 -0.4452,0 -0.8174,-0.167 -1.1074,-0.4968 -0.29,-0.3299 -0.4371,-0.7933 -0.4371,-1.3862 z"
     class="fil3" /><path
     style="opacity:0.43000004;fill:#809bb5;fill-opacity:0;stroke:none;stroke-width:0.7882759"
     d="M 12.187919,64.705344 C 7.4786941,63.022452 4.6055032,60.466642 2.4345386,56.029349 L 0.37597914,51.821806 0.61224678,32.138645 0.84851435,12.455484 3.2255123,8.6133427 C 4.9549578,5.8178954 6.7511318,4.1711549 9.818803,2.5685844 l 4.216292,-2.20261751 30.652745,0 30.652745,0 0,32.71344911 0,32.713449 -30.151553,-0.0346 C 22.617577,65.732364 14.321101,65.467659 12.187919,64.705344 Z m 51.916203,-5.642887 c 5.533907,-2.312215 8.214739,-6.193662 8.214739,-11.893726 0,-8.872691 -9.360254,-14.901336 -16.972348,-10.931355 -2.86705,1.49527 -2.865929,1.495457 -2.865929,-0.476932 0,-2.944949 2.394042,-6.837379 4.824534,-7.844121 2.757413,-1.142158 5.861704,0.06074 6.661726,2.581385 0.601217,1.894267 3.455416,3.01472 5.264603,2.066688 2.3672,-1.240437 1.729016,-4.926836 -1.31573,-7.600159 -6.784263,-5.956662 -17.85753,-3.032662 -21.776736,5.750351 -3.124419,7.001876 -2.627925,17.831655 1.072897,23.402588 2.058477,3.098673 7.708479,6.157758 11.373121,6.157758 1.439491,0 3.923097,-0.545615 5.519123,-1.212477 z m -25.181883,-0.52173 c 1.35145,-1.35145 1.168574,-4.317891 -0.300953,-4.881801 -0.685788,-0.263162 -4.608687,-0.478475 -8.717557,-0.478475 -4.774755,0 -7.295039,-0.284179 -6.983975,-0.787492 0.267683,-0.43312 3.481172,-3.2886 7.141087,-6.345512 7.490378,-6.256273 9.019053,-8.576599 9.019053,-13.689732 0,-2.835664 -0.48386,-4.110045 -2.380824,-6.270567 -6.583959,-7.498716 -22.377625,-4.438609 -24.085801,4.666752 -0.632984,3.37409 0.716289,5.255667 3.533328,4.927266 1.363753,-0.158981 2.392843,-1.014888 3.128184,-2.60175 1.813564,-3.913667 3.293799,-5.123793 6.267458,-5.123793 3.516343,0 5.656016,1.911701 5.650981,5.048897 -0.0048,2.982461 -1.778405,5.096894 -9.333065,11.126486 -3.184358,2.541527 -6.642918,5.739531 -7.68569,7.106676 -2.228794,2.9221 -2.462134,6.264313 -0.516468,7.39756 2.021807,1.177594 24.074634,1.095093 25.264242,-0.09452 z M 51.692865,15.934415 c 3.07e-4,-0.541939 0.933454,-1.039385 2.073662,-1.105435 1.994638,-0.115546 3.419571,-1.3794 3.419571,-3.033013 0,-1.8685645 -1.577059,-2.9582613 -4.417368,-3.0522608 L 49.721619,8.6428636 49.483355,12.781312 c -0.190991,3.317357 0.0045,4.138448 0.985344,4.138448 0.672985,0 1.22386,-0.443405 1.224166,-0.985345 z M 34.618437,10.431117 c 1.595216,-1.0150052 1.990518,-0.6703899 2.243755,1.956057 0.317278,3.290654 1.749452,3.326948 2.066671,0.05237 C 39.1943,9.6995191 37.12398,7.8388009 34.801481,8.7300272 c -0.810278,0.3109331 -1.239518,0.036978 -1.239518,-0.7911026 0,-0.6967129 -0.354724,-1.2667507 -0.788276,-1.2667507 -0.909001,0 -1.084441,7.3188571 -0.197069,8.2211431 0.325164,0.330629 0.711896,-0.407226 0.859405,-1.639679 0.147508,-1.232453 0.679595,-2.502587 1.182414,-2.822521 z m 9.585251,4.123816 c 0.26795,-0.433552 0.111522,-0.788276 -0.347617,-0.788276 -0.459138,0 -0.834797,-0.886811 -0.834797,-1.97069 0,-1.226207 0.44669,-1.9706896 1.182414,-1.9706896 0.778558,0 1.182413,0.7789046 1.182413,2.2804906 0,1.388214 0.506782,2.474962 1.295239,2.777521 1.69194,0.649258 2.399986,-0.101546 1.214106,-1.287426 -1.138532,-1.138532 -1.234749,-3.7705856 -0.137837,-3.7705856 0.476634,0 0.408604,-0.6186475 -0.169896,-1.5449718 -0.872416,-1.3969609 -1.092771,-1.4292048 -2.30012,-0.3365686 -1.205482,1.0909454 -1.414057,1.0687208 -2.14584,-0.2286497 -1.246607,-2.2100983 -2.84889,-0.080448 -2.609858,3.4688537 0.23327,3.463719 2.390477,5.444204 3.671793,3.370992 z m 16.277897,-0.394138 c 0,-0.411874 -0.381329,-0.875972 -0.847397,-1.031328 -0.466068,-0.155356 -0.847397,0.308741 -0.847397,1.031328 0,0.722586 0.381329,1.186684 0.847397,1.031327 0.466068,-0.155356 0.847397,-0.619453 0.847397,-1.031327 z m 3.034862,0.817458 c 0,-0.200725 0.704272,-2.151708 1.565049,-4.335518 1.164387,-2.9540722 1.305154,-3.9705611 0.549857,-3.9705611 -0.558355,0 -1.619106,1.6849397 -2.357224,3.7443101 -1.554174,4.336195 -1.619614,4.926725 -0.545958,4.926725 0.433552,0 0.788276,-0.164231 0.788276,-0.364956 z m 5.545944,-3.247638 c 1.714397,-3.9995264 1.891465,-5.0584411 0.845854,-5.0584411 -0.599801,0 -1.34608,1.5079324 -3.803662,7.6856901 -0.215591,0.541939 0.0133,0.985345 0.508644,0.985345 0.495344,0 1.597468,-1.625667 2.449164,-3.612594 z m -8.30491,-1.9053376 c 0.26795,-0.4335517 -0.06584,-0.7882758 -0.741754,-0.7882758 -0.675914,0 -1.228936,0.3547241 -1.228936,0.7882758 0,0.4335516 0.33379,0.7882756 0.741755,0.7882756 0.407965,0 0.960985,-0.354724 1.228935,-0.7882756 z"
     id="path4179"
     inkscape:connector-curvature="0"
     transform="scale(0.28222222,0.28222222)" /><path
     style="opacity:0.43000004;fill:#809bb5;fill-opacity:0;stroke:none;stroke-width:0.7882759"
     d="M 26.72927,65.052693 11.619679,64.610451 8.2921278,62.245623 C 6.3182846,60.842851 4.0789052,58.212236 2.7875083,55.779309 L 0.61044068,51.677823 1.0144327,32.131032 C 1.4011558,13.419781 1.4978833,12.445207 3.2773021,9.3315984 4.3919317,7.3812304 6.7951186,5.0141868 9.2796451,3.4195291 l 4.1434649,-2.65942427 30.761668,0 30.761669,0 0,32.31931117 0,32.319311 -16.553794,0.04811 C 49.288067,65.47329 35.039545,65.295931 26.72927,65.052697 Z m 38.873402,-6.410241 c 7.771951,-3.762337 9.381072,-14.069463 3.166663,-20.283872 -2.218129,-2.21813 -3.497035,-2.810139 -6.744843,-3.122213 -2.332309,-0.224105 -5.01071,0.03036 -6.406952,0.608703 -2.973544,1.231683 -3.417577,0.836129 -2.318225,-2.065123 2.251874,-5.942827 7.228767,-7.656268 10.183936,-3.506116 2.307541,3.240643 4.69151,3.853983 6.465349,1.663384 1.228174,-1.51673 1.277321,-2.053401 0.38816,-4.238585 -2.212654,-5.437776 -10.910015,-7.644443 -17.519303,-4.444941 -12.316692,5.962409 -12.001461,31.200039 0.451403,36.139616 3.322118,1.317757 8.742249,0.987793 12.333812,-0.750853 z m -26.656725,0.155395 c 0.595516,-0.377524 0.936062,-1.649353 0.788276,-2.943964 -0.248644,-2.178147 -0.452586,-2.287801 -4.595708,-2.47097 -2.384534,-0.105422 -5.87596,-0.398128 -7.758723,-0.650459 l -3.423206,-0.458783 7.571942,-7.2323 c 7.802073,-7.452107 8.153208,-8.093185 7.61725,-13.907028 -0.497644,-5.398218 -6.18158,-9.498516 -13.124244,-9.467615 -7.912275,0.03522 -14.031756,5.006419 -13.563681,11.01855 0.192583,2.473607 0.475683,2.784208 2.737141,3.003028 2.205953,0.213449 2.778163,-0.161182 4.561805,-2.986653 2.463648,-3.902672 5.21209,-5.183933 8.084545,-3.768832 4.856708,2.392631 3.416157,7.027444 -4.072715,13.103501 -10.15643,8.240367 -13.529104,13.519484 -10.544183,16.504405 1.107184,1.107184 24.019301,1.33622 25.721501,0.25712 z M 53.909075,15.324811 c 5.442226,-2.629397 4.081752,-7.0760853 -2.164944,-7.0760853 -2.244002,0 -2.41665,0.2004278 -2.41665,2.8054873 0,1.840774 -0.29837,2.621084 -0.86769,2.269225 C 47.975443,13.024095 47.786533,11.815017 48.032195,10.586704 48.544769,8.0238361 46.700621,5.8306202 45.251533,7.2797075 44.635681,7.89556 43.974809,7.8751278 42.896062,7.2068853 41.695486,6.463174 41.246699,6.5137145 40.644464,7.4604498 38.918966,10.173001 40.520406,15.343209 43.0861,15.343209 c 1.279388,0 1.552278,-0.3292 1.14352,-1.379483 -0.856237,-2.200055 -0.858259,-2.397237 -0.02593,-2.529591 0.433552,-0.06894 0.98018,0.693715 1.214729,1.694793 0.258292,1.102419 1.113089,1.91947 2.167758,2.072037 0.957719,0.138542 1.741306,0.581947 1.741306,0.985345 0,1.082562 0.913293,0.910831 4.581595,-0.861499 z M 33.965272,12.936626 c 0.593294,-2.701249 2.095713,-2.728978 2.728052,-0.05035 0.598369,2.534732 1.948839,2.442977 2.246461,-0.152632 0.314955,-2.746788 -1.042888,-4.4849213 -3.503652,-4.4849213 -1.030793,0 -1.87417,-0.3547242 -1.87417,-0.7882759 0,-0.4335517 -0.354724,-0.7882759 -0.788276,-0.7882759 -0.433551,0 -0.788275,1.9509828 -0.788275,4.3355171 0,4.700822 1.129379,5.801151 1.97986,1.928935 z m 26.516313,1.224169 c 0,-0.411874 -0.381329,-0.875972 -0.847397,-1.031328 -0.466068,-0.155356 -0.847397,0.308741 -0.847397,1.031328 0,0.722586 0.381329,1.186684 0.847397,1.031327 0.466068,-0.155356 0.847397,-0.619453 0.847397,-1.031327 z m 4.163071,-1.379483 c 2.017385,-4.932727 2.206329,-6.1091381 0.981191,-6.1091381 -1.128013,0 -3.685952,5.2079461 -3.685952,7.5045721 0,2.076612 1.628346,1.236519 2.704761,-1.395434 z m 4.548928,-0.648474 c 1.533664,-3.0884251 1.794776,-5.4606641 0.601057,-5.4606641 -0.786997,0 -3.913367,6.4021881 -3.913367,8.0138011 0,1.612317 2.015146,0.05903 3.31231,-2.553137 z M 60.970972,9.6774757 C 60.483759,8.2158364 58.786791,7.9734124 58.786791,9.3654501 c 0,0.6864569 0.561647,1.2481029 1.248104,1.2481029 0.686457,0 1.107692,-0.421235 0.936077,-0.9360773 z"
     id="path4181"
     inkscape:connector-curvature="0"
     transform="scale(0.28222222,0.28222222)" /></svg>