<?xml version="1.0" encoding="UTF-8" standalone="no"?>
<svg
   xmlns:dc="http://purl.org/dc/elements/1.1/"
   xmlns:cc="http://creativecommons.org/ns#"
   xmlns:rdf="http://www.w3.org/1999/02/22-rdf-syntax-ns#"
   xmlns:svg="http://www.w3.org/2000/svg"
   xmlns="http://www.w3.org/2000/svg"
   viewBox="0 0 400 300"
   height="300"
   width="400"
   version="1.1"
   id="svg3378">
  <metadata
     id="metadata3384">
    <rdf:RDF>
      <cc:Work
         rdf:about="">
        <dc:format>image/svg+xml</dc:format>
        <dc:type
           rdf:resource="http://purl.org/dc/dcmitype/StillImage" />
        <dc:title></dc:title>
      </cc:Work>
    </rdf:RDF>
  </metadata>
  <defs
     id="defs3382" />
  <g
     transform="translate(57.203394,358.47458)"
     id="g3392">
    <path
       id="path3396"
       d="m -36.786054,-113.41101 c -2.620566,-2.9843 -3.030588,-6.01261 -1.216947,-8.98805 2.052241,-3.36689 59.149581,-50.28394 63.22272,-51.9503 2.324586,-0.95101 3.443428,-0.90887 5.60196,0.21099 1.483477,0.76964 12.132399,10.5294 23.664279,21.68835 11.53188,11.15896 21.37117,20.42464 21.86509,20.59041 0.49393,0.16577 11.55785,-15.58423 24.586492,-35 13.02864,-19.41577 24.79684,-36.3139 26.15155,-37.5514 1.35472,-1.2375 3.45052,-2.24942 4.65735,-2.24871 1.20683,7.2e-4 12.99424,3.16483 26.19424,7.03137 l 24,7.03008 2,-2.33447 c 1.1,-1.28396 27.4122,-32.13952 58.47155,-68.56792 35.44525,-41.57247 57.3199,-66.44638 58.75,-66.80531 3.72949,-0.93604 7.14259,0.48155 8.77916,3.64633 1.3448,2.60056 1.3594,3.38062 0.11671,6.23552 -1.24724,2.86537 -110.45977,131.83079 -119.1223,140.66753 -2.32024,2.36692 -4.19942,3.3788 -6.16621,3.32034 -1.5559,-0.0463 -12.92043,-3.04075 -25.25452,-6.65443 -12.33409,-3.61368 -22.90909,-6.57011 -23.5,-6.56984 -0.59091,2.7e-4 -12.32439,16.75389 -26.07439,37.23027 -13.750002,20.47638 -25.787502,38.02617 -26.750002,38.99951 -1.01115,1.02256 -3.22771,1.76973 -5.25004,1.76973 -3.2035,0 -5.45593,-1.88515 -26.58507,-22.25 -12.69676,-12.2375 -23.458827,-22.38736 -23.915692,-22.55524 -0.456866,-0.16789 -12.231085,9.07597 -26.164931,20.54191 -13.933847,11.46594 -26.446895,21.6158 -27.806773,22.55524 -3.197161,2.2087 -8.296223,2.18786 -10.254226,-0.0419 z"
       style="fill:#999999" />
    <path
       id="path3394"
       d="m -8.002618,-57.88352 c -1.322303,-1.88785 -1.556704,-6.60142 -1.556704,-31.30383 l 0,-29.08133 3.25,-3.02637 c 5.016715,-4.67152 31.586564,-26.36596 32.291209,-26.36596 0.344048,0 8.680136,7.7625 18.524641,17.25 l 17.8991,17.25 0.0175,27.55 c 0.0128,20.11475 -0.30633,27.87386 -1.18247,28.75 -0.8852,0.8852 -9.92073,1.2 -34.443296,1.2 -33.219062,0 -33.244431,-0.002 -34.8,-2.22251 z m 105.999996,0 c -1.32877,-1.89708 -1.5506,-6.69233 -1.51505,-32.75 l 0.0417,-30.52749 20.525942,-30.48426 c 11.28927,-16.76635 20.6203,-30.57862 20.73562,-30.69395 0.11533,-0.11532 5.23662,1.31648 11.38066,3.18179 6.14404,1.86531 12.99426,3.88242 15.22272,4.48249 l 4.05175,1.09102 0,57.76145 c 0,43.59225 -0.29437,58.05583 -1.2,58.96146 -0.8852,0.8852 -9.92073,1.2 -34.4433,1.2 -33.219062,0 -33.244432,-0.002 -34.800002,-2.22251 z m 112.579572,0.88671 c -0.78551,-0.94648 -1.12717,-20.69213 -1.17229,-67.75 l -0.0637,-66.4142 34.79984,-40.81743 c 19.13992,-22.44959 34.94985,-41.23709 35.13318,-41.75 1.84139,-5.15168 2.16667,10.81358 2.16667,106.34492 0,95.47604 -0.17125,107.52199 -1.5567,109.5 -1.5557,2.22107 -1.57835,2.22251 -34.87756,2.22251 -26.57819,0 -33.54519,-0.27031 -34.42947,-1.3358 z M 48.876118,-168.99865 c -7.11449,-6.7857 -13.988426,-12.8982 -15.275408,-13.58333 -3.000506,-1.59734 -10.300273,-1.60405 -13.320064,-0.0122 -1.286982,0.6784 -8.298694,6.1159 -15.581582,12.08333 -7.282887,5.96739 -13.470387,10.84984 -13.75,10.84984 -0.279612,0 -0.508386,-14.53899 -0.508386,-32.30887 0,-24.27066 0.310991,-32.73327 1.25,-34.01469 1.142982,-1.55979 4.203702,-1.68317 35.75,-1.44113 l 34.5,0.26469 0.5,35.2506 c 0.275,19.38783 0.24595,35.25033 -0.0646,35.25 -0.31051,-3.3e-4 -6.38551,-5.55254 -13.5,-12.33824 z m 47.78769,-59.38611 c 0.19099,-35.30313 0.61549,-51.51592 1.36854,-52.26854 1.16386,-1.1632 67.588712,-1.6323 69.436402,-0.49036 0.60132,0.37163 0.97193,14.9184 0.97193,38.14866 0,29.65914 -0.26304,37.44703 -1.25198,37.06754 -0.68858,-0.26424 -8.61273,-2.61504 -17.60921,-5.22401 -17.60627,-5.1058 -22.06418,-5.39892 -27.05223,-1.77877 -1.42262,1.03248 -7.40665,9.01301 -13.29785,17.73451 -5.8912,8.7215 -11.190792,16.33678 -11.776872,16.92286 -0.75413,0.75413 -0.98467,-13.89338 -0.78873,-50.11189 z m 112.543472,-67.44357 c 0.18603,-39.19452 0.60077,-56.5704 1.37244,-57.50021 0.88069,-1.06117 7.89011,-1.33247 34.4267,-1.33247 33.29921,0 33.32186,10e-4 34.87756,2.22251 1.22633,1.75083 1.55114,5.09339 1.53049,15.75 l -0.0262,13.52749 -35.44117,41.48912 c -19.49264,22.81902 -35.79335,41.60662 -36.22379,41.75022 -0.43045,0.1436 -0.66266,-25.0144 -0.51603,-55.90666 z"
       style="fill:#7c7c7c" />
  </g>
</svg>
