<?xml version="1.0" encoding="UTF-8" standalone="no"?>
<!-- Created with Inkscape (http://www.inkscape.org/) -->

<svg
   xmlns:dc="http://purl.org/dc/elements/1.1/"
   xmlns:cc="http://creativecommons.org/ns#"
   xmlns:rdf="http://www.w3.org/1999/02/22-rdf-syntax-ns#"
   xmlns:svg="http://www.w3.org/2000/svg"
   xmlns="http://www.w3.org/2000/svg"
   xmlns:sodipodi="http://sodipodi.sourceforge.net/DTD/sodipodi-0.dtd"
   xmlns:inkscape="http://www.inkscape.org/namespaces/inkscape"
   id="svg3336"
   version="1.1"
   inkscape:version="0.91 r13725"
   width="480"
   height="480"
   viewBox="0 0 480 480"
   sodipodi:docname="support.svg"
   inkscape:export-filename="C:\Users\Andrey\YandexDisk\Andrey\26link_landing\temp\support.png"
   inkscape:export-xdpi="72"
   inkscape:export-ydpi="72">
  <metadata
     id="metadata3342">
    <rdf:RDF>
      <cc:Work
         rdf:about="">
        <dc:format>image/svg+xml</dc:format>
        <dc:type
           rdf:resource="http://purl.org/dc/dcmitype/StillImage" />
        <dc:title></dc:title>
      </cc:Work>
    </rdf:RDF>
  </metadata>
  <defs
     id="defs3340" />
  <sodipodi:namedview
     pagecolor="#ffffff"
     bordercolor="#666666"
     borderopacity="1"
     objecttolerance="10"
     gridtolerance="10"
     guidetolerance="10"
     inkscape:pageopacity="0"
     inkscape:pageshadow="2"
     inkscape:window-width="1920"
     inkscape:window-height="1017"
     id="namedview3338"
     showgrid="false"
     inkscape:zoom="2.5013902"
     inkscape:cx="122.53119"
     inkscape:cy="259.45635"
     inkscape:window-x="-4"
     inkscape:window-y="-4"
     inkscape:window-maximized="1"
     inkscape:current-layer="g3372" />
  <path
     style="fill:#000000"
     d=""
     id="path3360"
     inkscape:connector-curvature="0" />
  <path
     style="fill:#000000"
     d=""
     id="path3358"
     inkscape:connector-curvature="0" />
  <path
     style="fill:#000000"
     d=""
     id="path3356"
     inkscape:connector-curvature="0" />
  <path
     style="fill:#000000"
     d=""
     id="path3354"
     inkscape:connector-curvature="0" />
  <path
     style="fill:#000000"
     d=""
     id="path3352"
     inkscape:connector-curvature="0" />
  <path
     style="fill:#000000"
     d=""
     id="path3350"
     inkscape:connector-curvature="0" />
  <path
     style="fill:#000000"
     d=""
     id="path3348"
     inkscape:connector-curvature="0" />
  <path
     style="fill:#000000"
     d=""
     id="path3346"
     inkscape:connector-curvature="0" />
  <g
     id="g3372"
     transform="translate(-9.6113074,-42.402827)">
    <path
       inkscape:connector-curvature="0"
       id="path3364"
       d="m 175.26502,227.59386 c -18.68202,-0.90931 -36.25834,-12.74044 -44.08142,-29.67248 -3.3981,-7.35474 -4.49406,-12.63245 -4.49345,-21.63869 5.1e-4,-7.55002 0.85283,-14.93271 1.92407,-16.66601 0.38136,-0.61706 2.86082,1.51701 10.57098,9.09847 16.00848,15.74126 18.74631,17.5361 27.31657,17.90792 4.44457,0.19283 5.99965,0.0207 9.01542,-0.99809 12.16814,-4.11049 18.64844,-14.91182 16.46584,-27.44517 -1.17398,-6.74152 -3.31751,-9.70267 -17.46858,-24.1317 -8.66499,-8.8352 -8.69891,-8.87984 -7.08759,-9.32862 2.74498,-0.76452 16.55613,-0.37958 22.20549,0.61891 18.90455,3.34125 35.01611,19.75142 39.18757,39.91388 1.47182,7.11394 1.16374,18.53151 -0.6708,24.86014 -4.21953,14.5561 -16.86638,28.40278 -31.14552,34.10033 -5.95173,2.37481 -14.64232,3.7265 -21.73858,3.38111 z"
       style="fill:#a0a0a0;stroke:none;stroke-width:1px;stroke-linecap:butt;stroke-linejoin:miter;stroke-opacity:1" />
    <path
       inkscape:connector-curvature="0"
       id="path3366"
       d="m 244.9459,240.84266 -23.03996,-23.28789 40.56647,-40.45762 c 22.31155,-22.25169 42.729,-42.17021 45.37211,-44.26339 2.64311,-2.09317 6.20495,-4.49501 7.9152,-5.33743 2.97558,-1.46569 6.13191,-3.37144 14.48763,-2.66241 l 3.04826,0.25866 3.10015,0.87208 5.02865,2.41596 c 4.03032,1.93632 5.89252,3.28324 9.37994,6.78445 7.29138,7.32023 10.24636,15.40147 9.39318,25.68835 -0.57785,6.96712 -2.13769,11.09197 -6.09668,16.12215 -1.9027,2.4175 -22.05694,23.01635 -44.78722,45.77521 l -41.32776,41.37977 z m 60.87954,-31.62711 c 17.50913,-17.49117 33.13819,-33.4028 34.73125,-35.35919 3.42366,-4.20451 4.021,-5.92347 2.6029,-7.49045 -1.51774,-1.67708 -3.24523,-1.34825 -6.57172,1.25095 -1.66043,1.2974 -18.00438,17.28725 -36.3199,35.53299 l -33.30094,33.17407 2.34687,2.34688 c 1.29078,1.29078 2.8711,2.34687 3.51182,2.34687 0.78524,0 11.54134,-10.36575 32.99972,-31.80212 z m -1.14763,-22.13874 c 23.56553,-23.67967 33.69675,-34.44357 33.69675,-35.80108 0,-1.15362 -3.11641,-4.10965 -4.33262,-4.10965 -1.29877,0 -77.64618,76.30399 -77.64618,77.60203 0,0.51531 1.02411,2.01349 2.27579,3.32928 l 2.27579,2.39235 10.5864,-10.37301 c 5.82252,-5.70516 20.73735,-20.57313 33.14407,-33.03992 z m -28.13274,4.61224 c 27.89535,-27.68029 44.86836,-45.16825 44.86836,-46.22964 0,-0.97001 -3.17817,-3.94704 -4.21372,-3.94704 -0.49966,0 -3.75977,2.60777 -7.24468,5.79505 -8.78895,8.03832 -65.99743,64.91326 -65.99743,65.61266 0,0.86418 4.45367,4.91738 5.40324,4.91738 0.45796,0 12.69086,-11.76679 27.18423,-26.14841 z"
       style="fill:#a0a0a0;stroke:none;stroke-width:1px;stroke-linecap:butt;stroke-linejoin:miter;stroke-opacity:1"
       sodipodi:nodetypes="ccssssccsssssccssssscsssssssscsssssssss" />
    <path
       inkscape:connector-curvature="0"
       id="path3368"
       d="m 308.57223,337.23484 c -1.62096,-0.57578 -4.29233,-1.94159 -5.93639,-3.03514 -4.05309,-2.69593 -15.96598,-13.88083 -32.95125,-30.9376 l -14.13167,-14.19116 20.49068,-20.49069 20.49069,-20.49068 15.88514,15.82801 c 25.92835,25.83509 31.25312,32.05436 32.79327,38.30215 0.40235,1.63215 0.73236,5.2573 0.73335,8.05589 0.004,11.35518 -5.81851,20.36715 -16.52319,25.5741 -4.1713,2.029 -4.59,2.11449 -11.11897,2.2702 -5.464,0.13031 -7.35807,-0.0419 -9.73166,-0.88508 z m 13.56336,-14.83774 c 4.72142,-1.31115 8.40454,-6.37538 8.40454,-11.55611 0,-7.09408 -5.59253,-12.02255 -13.03186,-11.48443 -4.47447,0.32365 -7.33809,2.22619 -9.31157,6.18645 -1.94209,3.89726 -1.95102,7.24615 -0.0296,11.1019 1.57725,3.16511 3.7851,4.8807 7.36043,5.71935 3.04374,0.71395 4.13588,0.71938 6.60808,0.0328 l 0,-1e-5 z"
       style="fill:#a0a0a0;stroke:none;stroke-width:1px;stroke-linecap:butt;stroke-linejoin:miter;stroke-opacity:1" />
    <path
       inkscape:connector-curvature="0"
       id="path3370"
       d="m 147.50197,337.41693 c -3.15022,-3.0888 -3.70723,-3.91869 -3.51008,-5.22968 0.226,-1.50289 19.26115,-32.70578 25.95955,-42.55353 3.80351,-5.5918 5.62962,-7.46421 9.3676,-9.6051 l 2.71369,-1.55425 2.44979,2.00742 2.44979,2.00742 19.61348,-19.60746 19.61347,-19.60747 7.48349,7.49893 7.48349,7.49892 -19.50305,19.49691 c -10.72668,10.72329 -19.50305,19.74059 -19.50305,20.03843 0,0.29784 0.79065,1.35727 1.75699,2.35428 1.64457,1.69676 1.71541,1.93877 1.10712,3.78192 -1.37066,4.15314 -3.88178,6.99095 -9.25041,10.45389 -16.87451,10.88459 -43.03865,26.69078 -44.18152,26.69078 -0.16827,0 -1.99093,-1.65213 -4.05035,-3.67141 z"
       style="fill:#a0a0a0;stroke:none;stroke-width:1px;stroke-linecap:butt;stroke-linejoin:miter;stroke-opacity:1" />
  </g>
</svg>
